<svg xmlns="http://www.w3.org/2000/svg" xmlns:xlink="http://www.w3.org/1999/xlink" xmlns:svgjs="http://svgjs.com/svgjs" version="1.1" width="512" height="512" x="0" y="0" viewBox="0 0 64 64" style="enable-background:new 0 0 512 512" xml:space="preserve" class=""><g><path d="M59.243 29.438a11.804 11.804 0 0 0-3.964-.259 24.595 24.595 0 0 0-.972-2.111.815.815 0 0 1-.072-.602c.927-3.223 2.833-11.102.542-14.627a3.23 3.23 0 0 0-2.214-1.434c-3.19-.562-8.212 2.784-10.916 4.827a.77.77 0 0 1-.742.107 26.87 26.87 0 0 0-7.184-1.794 37.453 37.453 0 0 0-3.442 0 26.879 26.879 0 0 0-7.185 1.794.773.773 0 0 1-.74-.107c-2.704-2.043-7.71-5.389-10.917-4.827a3.23 3.23 0 0 0-2.213 1.434c-2.292 3.525-.386 11.404.54 14.627a.815.815 0 0 1-.071.602c-.38.726-.69 1.425-.972 2.11a11.806 11.806 0 0 0-3.964.26 1 1 0 0 0 .486 1.94 9.497 9.497 0 0 1 2.778-.244 17.987 17.987 0 0 0-.809 6.48 11.669 11.669 0 0 0-2.2 1.177 1 1 0 1 0 1.136 1.645 9.35 9.35 0 0 1 1.345-.766 10.16 10.16 0 0 0 .815 2.465c5.9 11.134 21.355 11.525 23.456 11.525h.44c2.135 0 17.588-.392 23.487-11.523a10.158 10.158 0 0 0 .815-2.466 9.348 9.348 0 0 1 1.346.765 1 1 0 1 0 1.136-1.645 11.671 11.671 0 0 0-2.2-1.178 17.985 17.985 0 0 0-.81-6.479 9.49 9.49 0 0 1 2.78.244 1 1 0 0 0 .485-1.94Zm-4.42 7.526a18.219 18.219 0 0 0-5.98-.445 1 1 0 0 0 .235 1.986 16.691 16.691 0 0 1 5.536.48 8.573 8.573 0 0 1-.69 2.214C48.296 51.82 32.17 51.675 31.982 51.659c-.17.002-16.276.165-21.905-10.457a8.579 8.579 0 0 1-.69-2.217 16.676 16.676 0 0 1 5.535-.48 1 1 0 0 0 .235-1.986 18.204 18.204 0 0 0-5.98.444 16.383 16.383 0 0 1 .855-5.565 20.11 20.11 0 0 1 6.429 2.73 1 1 0 0 0 1.143-1.64 21.722 21.722 0 0 0-6.86-2.986c.214-.49.451-.992.72-1.506a2.8 2.8 0 0 0 .223-2.081c-1.367-4.76-2.291-10.67-.787-12.986a1.215 1.215 0 0 1 .882-.554 2.513 2.513 0 0 1 .433-.035c1.862 0 5.206 1.67 8.932 4.488a2.757 2.757 0 0 0 2.654.382c.466-.176 1.199-.441 2.05-.71v4.002a1 1 0 0 0 2 0v-4.556a14.085 14.085 0 0 1 2.52-.403c.209-.01.42-.008.629-.014v8.731a1 1 0 0 0 2 0v-8.73c.21.005.42.004.629.013a14.085 14.085 0 0 1 2.52.403v4.556a1 1 0 0 0 2 0v-4.001c.851.268 1.584.533 2.05.709a2.762 2.762 0 0 0 2.654-.382c4.036-3.052 7.632-4.758 9.365-4.453a1.215 1.215 0 0 1 .882.554c1.505 2.315.58 8.226-.786 12.986a2.8 2.8 0 0 0 .222 2.08c.27.515.506 1.017.72 1.508a21.75 21.75 0 0 0-6.86 2.984 1 1 0 0 0 1.143 1.641 20.117 20.117 0 0 1 6.43-2.73 16.387 16.387 0 0 1 .854 5.566Z" fill="#1e88e5" opacity="1" data-original="#000000" class=""/><path d="M35.19 36.294a4.33 4.33 0 0 1-1.409-.308 13.057 13.057 0 0 0 2.249-2.85 1 1 0 0 0-1.753-.963A11.158 11.158 0 0 1 32 34.902a11.158 11.158 0 0 1-2.277-2.73 1 1 0 0 0-1.753.964 13.057 13.057 0 0 0 2.249 2.85 4.33 4.33 0 0 1-1.41.308 1 1 0 0 0 .038 2h.038A6.65 6.65 0 0 0 32 37.34a6.65 6.65 0 0 0 3.115.953l.038.001a1 1 0 0 0 .037-2ZM42.728 25.706a2.752 2.752 0 1 0 2.751 2.752 2.755 2.755 0 0 0-2.751-2.752ZM21.272 25.706a2.752 2.752 0 1 0 2.752 2.752 2.755 2.755 0 0 0-2.752-2.752Z" fill="#1e88e5" opacity="1" data-original="#000000" class=""/></g></svg>